<svg data-v-423bf9ae="" xmlns="http://www.w3.org/2000/svg" viewBox="0 0 347.9289777881359 60" class="font"><!----><!----><defs data-v-423bf9ae=""><linearGradient data-v-423bf9ae="" gradientTransform="rotate(25)" id="55e612bc-b2d0-4065-a6b3-63619b762c30" x1="0%" y1="0%" x2="100%" y2="0%"><stop data-v-423bf9ae="" offset="0%" style="stop-color: rgb(112, 36, 61); stop-opacity: 1;"></stop><stop data-v-423bf9ae="" offset="100%" style="stop-color: rgb(193, 87, 103); stop-opacity: 1;"></stop></linearGradient></defs><g data-v-423bf9ae="" id="2ba2792e-1ab8-46d0-a0c7-457ea5aaca83" fill="url(#55e612bc-b2d0-4065-a6b3-63619b762c30)" transform="matrix(5.917159562968884,0,0,5.917159562968884,-2.6627244724633954,-22.366863217149664)"><path d="M8.19 13.75L6.66 13.75L5.96 11.47L2.67 11.47L1.99 13.75L0.45 13.75L3.65 3.95L4.96 3.95L8.19 13.75ZM4.06 6.92L3.08 10.16L5.56 10.16L4.56 6.92L4.56 6.92Q4.41 6.41 4.31 5.89L4.31 5.89L4.31 5.89Q4.21 6.41 4.06 6.92L4.06 6.92ZM12.15 13.75L9.83 13.75L9.83 3.95L12.21 3.95L12.21 3.95Q13.12 3.95 13.85 4.23L13.85 4.23L13.85 4.23Q14.57 4.51 15.06 4.97L15.06 4.97L15.06 4.97Q15.54 5.43 15.86 6.07L15.86 6.07L15.86 6.07Q16.18 6.71 16.32 7.40L16.32 7.40L16.32 7.40Q16.46 8.09 16.46 8.85L16.46 8.85L16.46 8.85Q16.46 9.56 16.34 10.22L16.34 10.22L16.34 10.22Q16.21 10.88 15.90 11.54L15.90 11.54L15.90 11.54Q15.58 12.19 15.11 12.67L15.11 12.67L15.11 12.67Q14.63 13.15 13.87 13.45L13.87 13.45L13.87 13.45Q13.10 13.75 12.15 13.75L12.15 13.75ZM11.26 5.28L11.26 12.40L12.26 12.40L12.26 12.40Q13.01 12.40 13.55 12.09L13.55 12.09L13.55 12.09Q14.10 11.77 14.40 11.24L14.40 11.24L14.40 11.24Q14.70 10.71 14.84 10.12L14.84 10.12L14.84 10.12Q14.98 9.52 14.98 8.85L14.98 8.85L14.98 8.85Q14.98 7.36 14.34 6.32L14.34 6.32L14.34 6.32Q13.69 5.28 12.42 5.28L12.42 5.28L11.26 5.28ZM24.77 13.75L18.45 13.75L18.45 3.95L24.46 3.95L24.46 5.31L19.89 5.31L19.89 8.01L22.93 8.01L22.93 9.37L19.89 9.37L19.89 12.38L24.77 12.38L24.77 13.75ZM30.90 13.75L29.47 13.75L29.47 5.32L26.63 5.32L26.63 3.95L33.74 3.95L33.74 5.32L30.90 5.32L30.90 13.75ZM38.81 13.92L38.81 13.92L38.81 13.92Q37.34 13.92 36.46 12.99L36.46 12.99L36.46 12.99Q35.57 12.05 35.57 10.02L35.57 10.02L35.57 3.95L37.02 3.95L37.02 10.02L37.02 10.02Q37.02 12.56 38.81 12.56L38.81 12.56L38.81 12.56Q40.61 12.56 40.61 10.02L40.61 10.02L40.61 3.95L42.04 3.95L42.04 10.02L42.04 10.02Q42.04 12.04 41.17 12.98L41.17 12.98L41.17 12.98Q40.29 13.92 38.81 13.92ZM45.77 13.75L44.32 13.75L44.32 3.95L47.57 3.95L47.57 3.95Q49.24 3.95 50.02 4.81L50.02 4.81L50.02 4.81Q50.79 5.67 50.79 6.93L50.79 6.93L50.79 6.93Q50.79 8.11 49.99 9.01L49.99 9.01L49.99 9.01Q49.18 9.91 47.57 9.91L47.57 9.91L45.77 9.91L45.77 13.75ZM45.77 5.28L45.77 8.58L47.66 8.58L47.66 8.58Q48.51 8.58 48.92 8.09L48.92 8.09L48.92 8.09Q49.34 7.60 49.34 6.93L49.34 6.93L49.34 6.93Q49.34 6.29 48.94 5.78L48.94 5.78L48.94 5.78Q48.55 5.28 47.66 5.28L47.66 5.28L45.77 5.28ZM56.15 13.92L56.15 13.92L56.15 13.92Q54.99 13.92 54.10 13.27L54.10 13.27L54.10 13.27Q53.20 12.61 52.84 11.58L52.84 11.58L54.17 11.09L54.17 11.09Q54.46 11.76 55.01 12.17L55.01 12.17L55.01 12.17Q55.57 12.57 56.25 12.57L56.25 12.57L56.25 12.57Q56.97 12.57 57.38 12.19L57.38 12.19L57.38 12.19Q57.79 11.82 57.79 11.10L57.79 11.10L57.79 11.10Q57.79 10.47 57.26 10.02L57.26 10.02L57.26 10.02Q56.73 9.56 55.80 9.16L55.80 9.16L55.80 9.16Q55.22 8.90 54.85 8.69L54.85 8.69L54.85 8.69Q54.49 8.48 54.04 8.13L54.04 8.13L54.04 8.13Q53.59 7.78 53.38 7.32L53.38 7.32L53.38 7.32Q53.16 6.86 53.16 6.27L53.16 6.27L53.16 6.27Q53.16 5.22 53.95 4.50L53.95 4.50L53.95 4.50Q54.74 3.78 56.04 3.78L56.04 3.78L56.04 3.78Q57.08 3.78 57.83 4.31L57.83 4.31L57.83 4.31Q58.58 4.84 58.81 5.68L58.81 5.68L57.51 6.12L57.51 6.12Q57.32 5.68 56.92 5.40L56.92 5.40L56.92 5.40Q56.52 5.11 55.97 5.11L55.97 5.11L55.97 5.11Q55.37 5.11 54.99 5.43L54.99 5.43L54.99 5.43Q54.61 5.74 54.61 6.27L54.61 6.27L54.61 6.27Q54.61 6.55 54.75 6.78L54.75 6.78L54.75 6.78Q54.88 7.00 55.17 7.20L55.17 7.20L55.17 7.20Q55.47 7.41 55.71 7.53L55.71 7.53L55.71 7.53Q55.94 7.64 56.41 7.85L56.41 7.85L56.41 7.85Q56.43 7.87 56.45 7.88L56.45 7.88L56.45 7.88Q56.46 7.88 56.49 7.89L56.49 7.89L56.49 7.89Q56.52 7.90 56.53 7.91L56.53 7.91L56.53 7.91Q57.09 8.18 57.48 8.41L57.48 8.41L57.48 8.41Q57.88 8.64 58.32 9.02L58.32 9.02L58.32 9.02Q58.77 9.39 59.01 9.91L59.01 9.91L59.01 9.91Q59.25 10.43 59.25 11.06L59.25 11.06L59.25 11.06Q59.25 12.38 58.37 13.15L58.37 13.15L58.37 13.15Q57.48 13.92 56.15 13.92Z"></path></g><!----><!----></svg>